<svg width="15" height="15" viewBox="0 0 15 15" fill="none" xmlns="http://www.w3.org/2000/svg">
<path fill-rule="evenodd" clip-rule="evenodd" d="M7.35841 0.000366361C7.22591 0.0072414 7.1109 0.0947408 7.06966 0.22099L5.46342 5.04035H0.319097V5.04098C0.180972 5.04098 0.0584725 5.12973 0.0159765 5.26098C-0.0271483 5.39223 0.0191015 5.53598 0.129727 5.61848L4.30845 8.67416L2.70221 13.6617V13.6611C2.65908 13.7936 2.70658 13.9379 2.81908 14.0192C2.93158 14.1011 3.08345 14.1004 3.19534 14.0186L7.37406 10.9629L11.5528 14.0186C11.6647 14.1004 11.8165 14.1011 11.929 14.0192C12.0415 13.9379 12.089 13.7936 12.0459 13.6611L10.4397 8.67353L14.6184 5.61785V5.61848C14.729 5.53598 14.7753 5.39222 14.7321 5.26098C14.6896 5.12973 14.5671 5.04098 14.429 5.04098H9.2847L7.67846 0.221615V0.22099C7.63409 0.0841152 7.50283 -0.00651364 7.35846 0.000366361H7.35841ZM7.37403 1.33411L8.74967 5.46035V5.46098C8.79216 5.59223 8.9153 5.6816 9.05403 5.68098H13.4478L9.87275 8.29538V8.296C9.7615 8.37725 9.71463 8.52099 9.75713 8.65288L11.1328 12.921L7.56332 10.3116H7.5627C7.45019 10.2291 7.2977 10.2291 7.18519 10.3116L3.61575 12.921L4.99138 8.65288H4.99076C5.03326 8.52101 4.98638 8.37725 4.87513 8.296L1.30009 5.6816H5.69385V5.68098C5.8326 5.6816 5.95572 5.59223 5.99822 5.46098L7.37385 1.33474L7.37403 1.33411Z" fill="#E9B200"/>
</svg>
